<svg width="23" height="18" viewBox="0 0 23 18" fill="none" xmlns="http://www.w3.org/2000/svg">
<g clip-path="url(#clip0_124_672)">
<path d="M20.9336 0.391663C20.8937 0.40673 20.7739 0.451931 20.6741 0.497132C20.5293 0.5574 18.8972 2.30517 13.8909 7.73932C10.2622 11.6768 7.2774 14.9062 7.25244 14.9162C7.23247 14.9263 6.13938 13.8615 4.82666 12.5507C2.5007 10.2304 2.43582 10.1701 2.18126 10.1099C1.69211 9.98932 1.19298 10.2203 0.968369 10.6623C0.848577 10.8984 0.833603 11.3504 0.943412 11.5814C0.983343 11.6668 2.30604 13.0278 3.87831 14.6099C6.67844 17.4224 6.73833 17.4776 6.99289 17.5379C7.20752 17.5881 7.29736 17.5831 7.52696 17.5178C7.75656 17.4475 7.85639 17.3772 8.17084 17.0457C8.38048 16.8347 11.5699 13.3794 15.2685 9.3766C19.4412 4.86153 22.0267 2.0189 22.0866 1.89334C22.2563 1.52671 22.1815 1.00941 21.9169 0.723136C21.6973 0.487087 21.1682 0.306284 20.9336 0.391663Z" fill="black"/>
</g>
<defs>
<clipPath id="clip0_124_672">
<rect width="23" height="18" fill="white"/>
</clipPath>
</defs>
</svg>
