<svg width="22" height="23" viewBox="0 0 22 23" fill="none" xmlns="http://www.w3.org/2000/svg">
<g clip-path="url(#clip0_124_675)">
<path d="M20.4923 21.4727C21.3131 20.665 21.9883 19.9764 21.9883 19.9366C21.9883 19.8837 17.8577 15.5667 14.8789 12.4945L13.9125 11.5014L17.9504 7.26387C20.1745 4.94649 21.9883 2.99989 21.9883 2.94692C21.9883 2.90719 21.3131 2.23184 20.4923 1.46379L18.983 0.0601196L15.0378 4.19168C12.8666 6.46934 11.0529 8.32324 10.9999 8.32324C10.9469 8.32324 9.13319 6.46934 6.96199 4.19168L3.01676 0.0601196L1.50752 1.46379C0.686697 2.23184 0.0115073 2.89395 0.0115073 2.94692C0.0115073 2.99989 1.82525 4.94649 4.04941 7.26387L8.08731 11.5014L7.12086 12.4945C2.92409 16.8115 -0.00173177 19.9234 0.0379853 20.0029C0.0512243 20.0691 0.739653 20.7444 1.53399 21.5257L2.99029 22.9426L6.96199 18.7846C9.14643 16.4937 10.9734 14.6265 11.0264 14.653C11.0793 14.6663 12.8004 16.4407 14.8524 18.5859C16.8913 20.7312 18.6653 22.5983 18.7844 22.7175C18.9963 22.9294 19.1022 22.8632 20.4923 21.4727Z" fill="black"/>
</g>
<defs>
<clipPath id="clip0_124_675">
<rect width="22" height="23" fill="white" transform="matrix(-1 0 0 -1 22 23)"/>
</clipPath>
</defs>
</svg>
